<?xml version="1.0" encoding="UTF-8" standalone="no"?>
<!-- Created with Inkscape (http://www.inkscape.org/) -->

<svg
   width="100"
   height="100"
   viewBox="0 0 26.458333 26.458333"
   version="1.1"
   id="svg1"
   sodipodi:docname="dobLogo.svg"
   inkscape:version="1.4.2 (f4327f4, 2025-05-13)"
   inkscape:export-filename="dobLogo-mono.png"
   inkscape:export-xdpi="96"
   inkscape:export-ydpi="96"
   xmlns:inkscape="http://www.inkscape.org/namespaces/inkscape"
   xmlns:sodipodi="http://sodipodi.sourceforge.net/DTD/sodipodi-0.dtd"
   xmlns="http://www.w3.org/2000/svg"
   xmlns:svg="http://www.w3.org/2000/svg">
  <sodipodi:namedview
     id="namedview1"
     pagecolor="#ffffff"
     bordercolor="#000000"
     borderopacity="0.25"
     inkscape:showpageshadow="2"
     inkscape:pageopacity="0.0"
     inkscape:pagecheckerboard="0"
     inkscape:deskcolor="#d1d1d1"
     inkscape:document-units="mm"
     inkscape:zoom="1"
     inkscape:cx="51"
     inkscape:cy="69.5"
     inkscape:window-width="1840"
     inkscape:window-height="1057"
     inkscape:window-x="72"
     inkscape:window-y="-8"
     inkscape:window-maximized="1"
     inkscape:current-layer="svg1"
     showguides="true">
    <sodipodi:guide
       position="1.9791666,15.721172"
       orientation="0,-1"
       id="guide3"
       inkscape:locked="false" />
  </sodipodi:namedview>
  <defs
     id="defs1" />
  <text
     xml:space="preserve"
     style="font-style:normal;font-variant:normal;font-weight:normal;font-stretch:normal;font-size:12.7px;font-family:'JetBrainsMono NFM';-inkscape-font-specification:'JetBrainsMono NFM';text-align:center;writing-mode:lr-tb;direction:ltr;text-anchor:middle;display:none;fill:#ffffff;fill-opacity:1;stroke-width:0.529167;stroke-linecap:round;stroke-linejoin:round;stroke-miterlimit:173"
     x="13.229167"
     y="17.864676"
     id="text2"><tspan
       sodipodi:role="line"
       id="tspan2"
       style="font-style:normal;font-variant:normal;font-weight:normal;font-stretch:normal;font-size:12.7px;font-family:'JetBrainsMono NFM';-inkscape-font-specification:'JetBrainsMono NFM';fill:#ffffff;fill-opacity:1;stroke-width:0.529167"
       x="13.229167"
       y="17.864676">dOb</tspan></text>
  <path
     id="mono-pircing"
     style="display:none;fill:#1a5fb4;stroke-width:0.529167;stroke-linecap:round;stroke-linejoin:round;stroke-miterlimit:173"
     d="m 8.2289551,3.2292603 c -2.77,0 -4.9996948,2.2296948 -4.9996948,4.9996948 V 18.229378 c 0,2.77 2.2296948,4.999695 4.9996948,4.999695 H 18.229378 c 2.77,0 4.999695,-2.229695 4.999695,-4.999695 V 8.2289551 c 0,-2.77 -2.229695,-4.9996948 -4.999695,-4.9996948 z m -0.9027873,4.249353 h 7.0527992 c 1.62057,0 2.805688,0.157097 3.555339,0.471289 0.749651,0.3197043 1.300869,0.7551661 1.653646,1.3063803 0.352777,0.5512141 0.529166,1.1547974 0.529166,1.8107424 0,0.810285 -0.209462,1.48277 -0.628385,2.017448 -0.418923,0.54019 -0.972896,0.931554 -1.661914,1.174088 -0.677994,0.237022 -1.725307,0.355534 -3.141927,0.355534 H 12.890686 V 16.2264 h 1.157552 v 2.75332 H 7.3261678 V 16.2264 H 8.4423787 V 10.231934 H 7.3261678 Z m 5.5645182,2.5218097 v 2.158008 h 0.868164 c 0.606336,0 1.04731,-0.07166 1.322917,-0.214974 0.264583,-0.143316 0.396875,-0.42168 0.396875,-0.835091 0,-0.270095 -0.07166,-0.49885 -0.214974,-0.686263 -0.137804,-0.181901 -0.322462,-0.297656 -0.553972,-0.347266 -0.220485,-0.04961 -0.595313,-0.07441 -1.124479,-0.07441 z" />
  <rect
     style="display:none;fill:#fd7e14;stroke-width:0.529167;stroke-linecap:round;stroke-linejoin:round;stroke-miterlimit:173"
     id="rect2"
     width="22.5"
     height="22.5"
     x="1.9791666"
     y="1.9791666"
     rx="5"
     ry="5" />
  <path
     d="m 6.0663373,16.759078 c -0.6773332,0 -1.2276665,-0.2413 -1.6509999,-0.7239 -0.4148666,-0.4826 -0.6223,-1.1303 -0.6223,-1.9431 v -1.8923 c 0,-0.821267 0.2074334,-1.4732 0.6223,-1.9558 0.4148667,-0.4826002 0.9652,-0.7239002 1.6509999,-0.7239002 0.4826,0 0.889,0.122767 1.2192,0.3683 0.3386667,0.2455332 0.5757334,0.5884332 0.7112,1.0287002 l -0.0508,-1.6002002 V 7.3610775 h 1.5875 v 9.2710005 h -1.5494 v -1.27 c -0.127,0.440267 -0.3556,0.783167 -0.6858,1.0287 -0.3302,0.245533 -0.7408333,0.3683 -1.2319,0.3683 z m 0.5969,-1.3716 c 0.4064,0 0.7196667,-0.122767 0.9398,-0.3683 0.2286,-0.245533 0.3429,-0.592667 0.3429,-1.0414 v -1.6764 c 0,-0.448733 -0.1143,-0.795867 -0.3429,-1.0414 -0.2201333,-0.245533 -0.5334,-0.3683 -0.9398,-0.3683 -0.4064,0 -0.7239,0.110067 -0.9525,0.3302 -0.2201332,0.220133 -0.3301999,0.5588 -0.3301999,1.016 v 1.8034 c 0,0.4572 0.1100667,0.795867 0.3301999,1.016 0.2286,0.220133 0.5461,0.3302 0.9525,0.3302 z m 6.5197807,3.709778 c -0.888999,0 -1.595966,-0.254 -2.120899,-0.762 -0.516467,-0.508 -0.7747,-1.210733 -0.7747,-2.1082 v -3.7846 c 0,-0.897467 0.258233,-1.6002 0.7747,-2.1082 0.524933,-0.5080002 1.2319,-0.7620002 2.120899,-0.7620002 0.889,0 1.591733,0.254 2.1082,0.7620002 0.524933,0.508 0.7874,1.2065 0.7874,2.0955 v 3.7973 c 0,0.897467 -0.262467,1.6002 -0.7874,2.1082 -0.516467,0.508 -1.2192,0.762 -2.1082,0.762 z m 0,-1.397 c 0.4318,0 0.757767,-0.1143 0.9779,-0.3429 0.220133,-0.237066 0.3302,-0.5715 0.3302,-1.0033 v -4.0386 c 0,-0.4318 -0.110067,-0.762 -0.3302,-0.9906 -0.220133,-0.237067 -0.5461,-0.3556 -0.9779,-0.3556 -0.4318,0 -0.757766,0.118533 -0.977899,0.3556 -0.220133,0.2286 -0.3302,0.5588 -0.3302,0.9906 v 4.0386 c 0,0.4318 0.110067,0.766234 0.3302,1.0033 0.220133,0.2286 0.546099,0.3429 0.977899,0.3429 z m 7.208978,-0.941178 c -0.491067,0 -0.9017,-0.122767 -1.2319,-0.3683 -0.3302,-0.245533 -0.5588,-0.588433 -0.6858,-1.0287 v 1.27 h -1.5494 V 7.3610775 h 1.5875 v 1.9558003 l -0.0508,1.6002002 c 0.135467,-0.440267 0.3683,-0.783167 0.6985,-1.0287002 0.338667,-0.245533 0.7493,-0.3683 1.2319,-0.3683 0.6858,0 1.236133,0.2413 1.651,0.7239002 0.414867,0.4826 0.6223,1.134533 0.6223,1.9558 v 1.8923 c 0,0.8128 -0.211667,1.4605 -0.635,1.9431 -0.414867,0.4826 -0.960967,0.7239 -1.6383,0.7239 z m -0.5969,-1.3716 c 0.4064,0 0.719667,-0.110067 0.9398,-0.3302 0.2286,-0.220133 0.3429,-0.5588 0.3429,-1.016 v -1.8034 c 0,-0.4572 -0.1143,-0.795867 -0.3429,-1.016 -0.220133,-0.220133 -0.5334,-0.3302 -0.9398,-0.3302 -0.4064,0 -0.7239,0.122767 -0.9525,0.3683 -0.220133,0.245533 -0.3302,0.592667 -0.3302,1.0414 v 1.6764 c 0,0.448733 0.110067,0.795867 0.3302,1.0414 0.2286,0.245533 0.5461,0.3683 0.9525,0.3683 z"
     id="text3"
     style="font-size:12.7px;font-family:'JetBrainsMono NFM';-inkscape-font-specification:'JetBrainsMono NFM';text-align:center;text-anchor:middle;display:none;fill:#ffffff;stroke-width:0.529167;stroke-linecap:round;stroke-linejoin:round;stroke-miterlimit:173"
     aria-label="dOb"
     sodipodi:nodetypes="scssssccccccccssscsscscsscsscsscscsscsscsscscsscsssccccccccsssscsscsscscsscs" />
  <path
     id="rect3"
     style="fill:#fd7e14;stroke-width:0.529167;stroke-linecap:round;stroke-linejoin:round;stroke-miterlimit:173"
     d="M 6.9794189 1.9792074 C 4.2094189 1.9792074 1.9792074 4.2094189 1.9792074 6.9794189 L 1.9792074 19.478914 C 1.9792074 22.248914 4.2094189 24.479126 6.9794189 24.479126 L 19.478914 24.479126 C 22.248914 24.479126 24.479126 22.248914 24.479126 19.478914 L 24.479126 6.9794189 C 24.479126 4.2094189 22.248914 1.9792074 19.478914 1.9792074 L 6.9794189 1.9792074 z M 7.9457682 7.3613078 L 9.5332682 7.3613078 L 9.5332682 16.63206 L 7.9840088 16.63206 L 7.9840088 15.361853 C 7.8570088 15.80212 7.6284625 16.145198 7.2982625 16.390731 C 6.9680625 16.636264 6.5573631 16.759184 6.0662964 16.759184 C 5.3889632 16.759184 4.8385678 16.517797 4.4152344 16.035197 C 4.0003678 15.552597 3.7930501 14.904963 3.7930501 14.092163 L 3.7930501 12.199772 C 3.7930501 11.378505 4.0003678 10.726419 4.4152344 10.243819 C 4.8301011 9.761219 5.3804965 9.5198324 6.0662964 9.5198324 C 6.5488964 9.5198324 6.9551434 9.6427523 7.2853434 9.8882853 C 7.6240101 10.133819 7.8614613 10.476896 7.9969279 10.917163 L 7.9457682 9.316744 L 7.9457682 7.3613078 z M 16.925065 7.3613078 L 18.512565 7.3613078 L 18.512565 9.316744 L 18.461405 10.917163 C 18.596872 10.476896 18.829871 10.133819 19.160071 9.8882853 C 19.498738 9.6427523 19.909437 9.5198324 20.392037 9.5198324 C 21.077837 9.5198324 21.628232 9.761219 22.043099 10.243819 C 22.457966 10.726419 22.665283 11.378505 22.665283 12.199772 L 22.665283 14.092163 C 22.665283 14.904963 22.453513 15.552597 22.03018 16.035197 C 21.615313 16.517797 21.06937 16.759184 20.392037 16.759184 C 19.90097 16.759184 19.490271 16.636264 19.160071 16.390731 C 18.829871 16.145198 18.601325 15.80212 18.474325 15.361853 L 18.474325 16.63206 L 16.925065 16.63206 L 16.925065 7.3613078 z M 13.183175 9.5720256 C 14.072175 9.5720256 14.774589 9.8262527 15.291056 10.334253 C 15.815989 10.842253 16.078605 11.540732 16.078605 12.429732 L 16.078605 16.226917 C 16.078605 17.124384 15.815989 17.827315 15.291056 18.335315 C 14.774589 18.843315 14.072175 19.097026 13.183175 19.097026 C 12.294176 19.097026 11.587307 18.843315 11.062374 18.335315 C 10.545907 17.827315 10.287227 17.124384 10.287227 16.226917 L 10.287227 12.442651 C 10.287227 11.545184 10.545907 10.842253 11.062374 10.334253 C 11.587307 9.8262527 12.294176 9.5720256 13.183175 9.5720256 z M 6.6631592 10.891842 C 6.2567592 10.891842 5.9393625 11.001921 5.7107625 11.222054 C 5.4906293 11.442187 5.3805501 11.780813 5.3805501 12.238013 L 5.3805501 14.04152 C 5.3805501 14.49872 5.4906293 14.837346 5.7107625 15.057479 C 5.9393625 15.277612 6.2567592 15.387691 6.6631592 15.387691 C 7.0695592 15.387691 7.3830202 15.264771 7.6031535 15.019238 C 7.8317535 14.773705 7.9457682 14.426691 7.9457682 13.977958 L 7.9457682 12.301575 C 7.9457682 11.852842 7.8317535 11.505311 7.6031535 11.259778 C 7.3830202 11.014245 7.0695592 10.891842 6.6631592 10.891842 z M 19.795174 10.891842 C 19.388774 10.891842 19.071378 11.014245 18.842778 11.259778 C 18.622645 11.505311 18.512565 11.852842 18.512565 12.301575 L 18.512565 13.977958 C 18.512565 14.426691 18.622645 14.773705 18.842778 15.019238 C 19.071378 15.264771 19.388774 15.387691 19.795174 15.387691 C 20.201574 15.387691 20.514519 15.277612 20.734652 15.057479 C 20.963252 14.837346 21.077783 14.49872 21.077783 14.04152 L 21.077783 12.238013 C 21.077783 11.780813 20.963252 11.442187 20.734652 11.222054 C 20.514519 11.001921 20.201574 10.891842 19.795174 10.891842 z M 13.183175 10.969356 C 12.751375 10.969356 12.425073 11.087823 12.20494 11.32489 C 11.984807 11.55349 11.874727 11.883727 11.874727 12.315527 L 11.874727 16.354041 C 11.874727 16.785841 11.984807 17.120531 12.20494 17.357597 C 12.425073 17.586197 12.751375 17.700212 13.183175 17.700212 C 13.614975 17.700212 13.94076 17.586197 14.160893 17.357597 C 14.381026 17.120531 14.491105 16.785841 14.491105 16.354041 L 14.491105 12.315527 C 14.491105 11.883727 14.381026 11.55349 14.160893 11.32489 C 13.94076 11.087823 13.614975 10.969356 13.183175 10.969356 z " />
</svg>
