<?xml version="1.0" encoding="UTF-8" standalone="no"?>
<!-- Created with Inkscape (http://www.inkscape.org/) -->

<svg
   width="100"
   height="100"
   viewBox="0 0 26.458333 26.458333"
   version="1.1"
   id="svg1"
   sodipodi:docname="parkingLogo-mono-pircing.svg"
   inkscape:version="1.4.2 (f4327f4, 2025-05-13)"
   inkscape:export-filename="parkingLogo-mono.png"
   inkscape:export-xdpi="96"
   inkscape:export-ydpi="96"
   xmlns:inkscape="http://www.inkscape.org/namespaces/inkscape"
   xmlns:sodipodi="http://sodipodi.sourceforge.net/DTD/sodipodi-0.dtd"
   xmlns="http://www.w3.org/2000/svg"
   xmlns:svg="http://www.w3.org/2000/svg">
  <sodipodi:namedview
     id="namedview1"
     pagecolor="#ffffff"
     bordercolor="#000000"
     borderopacity="0.25"
     inkscape:showpageshadow="2"
     inkscape:pageopacity="0.0"
     inkscape:pagecheckerboard="0"
     inkscape:deskcolor="#d1d1d1"
     inkscape:document-units="mm"
     inkscape:zoom="4.3"
     inkscape:cx="16.27907"
     inkscape:cy="62.674419"
     inkscape:window-width="1840"
     inkscape:window-height="1057"
     inkscape:window-x="72"
     inkscape:window-y="-8"
     inkscape:window-maximized="1"
     inkscape:current-layer="svg1" />
  <defs
     id="defs1" />
  <rect
     style="display:none;fill:#ffffff;stroke-width:0.529167;stroke-linecap:round;stroke-linejoin:round;stroke-miterlimit:173"
     id="rect1"
     width="17.150497"
     height="17.000772"
     x="4.5798225"
     y="4.8044591" />
  <path
     id="mono-pircing"
     style="display:inline;fill:#1a5fb4;stroke-width:0.529167;stroke-linecap:round;stroke-linejoin:round;stroke-miterlimit:173"
     d="m 8.2289551,3.2292603 c -2.77,0 -4.9996948,2.2296948 -4.9996948,4.9996948 V 18.229378 c 0,2.77 2.2296948,4.999695 4.9996948,4.999695 H 18.229378 c 2.77,0 4.999695,-2.229695 4.999695,-4.999695 V 8.2289551 c 0,-2.77 -2.229695,-4.9996948 -4.999695,-4.9996948 z m -0.9027873,4.249353 h 7.0527992 c 1.62057,0 2.805688,0.157097 3.555339,0.471289 0.749651,0.3197043 1.300869,0.7551661 1.653646,1.3063803 0.352777,0.5512141 0.529166,1.1547974 0.529166,1.8107424 0,0.810285 -0.209462,1.48277 -0.628385,2.017448 -0.418923,0.54019 -0.972896,0.931554 -1.661914,1.174088 -0.677994,0.237022 -1.725307,0.355534 -3.141927,0.355534 H 12.890686 V 16.2264 h 1.157552 v 2.75332 H 7.3261678 V 16.2264 H 8.4423787 V 10.231934 H 7.3261678 Z m 5.5645182,2.5218097 v 2.158008 h 0.868164 c 0.606336,0 1.04731,-0.07166 1.322917,-0.214974 0.264583,-0.143316 0.396875,-0.42168 0.396875,-0.835091 0,-0.270095 -0.07166,-0.49885 -0.214974,-0.686263 -0.137804,-0.181901 -0.322462,-0.297656 -0.553972,-0.347266 -0.220485,-0.04961 -0.595313,-0.07441 -1.124479,-0.07441 z" />
</svg>
